<?xml version="1.0" encoding="utf-8"?>

<svg version="1.1" id="Layer_1" xmlns="http://www.w3.org/2000/svg" xmlns:xlink="http://www.w3.org/1999/xlink" x="0px" y="0px"
	 width="300px" viewBox="0 0 800 400" enable-background="new 0 0 800 400" xml:space="preserve">

	<path fill="#51FDBA" opacity="1.000000" stroke="none" 
	d="
	M139.052887,309.247864 
	C113.710609,288.729401 98.728104,262.176819 91.822395,230.439758 
	C87.987534,212.815598 87.099663,195.073685 88.211861,177.356415 
	C89.885422,150.696777 97.993927,125.596771 112.567535,103.194649 
	C129.202271,77.624229 151.905289,58.518757 179.858536,46.108627 
	C195.266968,39.267895 211.242615,33.930874 228.140045,32.003811 
	C240.171417,30.631701 252.213486,29.353432 265.013550,27.949623 
	C265.013550,34.172062 265.013550,39.102211 264.888672,44.876205 
	C264.633392,46.866001 264.389404,48.011898 264.388947,49.157894 
	C264.369873,95.256767 264.369202,141.355652 264.392334,187.454514 
	C264.392975,188.710175 264.680695,189.965714 264.906738,191.810593 
	C270.519257,191.489166 275.781067,191.187836 281.042877,190.886490 
	C314.165863,190.886490 347.288849,190.886490 381.019409,190.886490 
	C381.019409,196.203140 381.019409,201.138046 381.018799,206.999069 
	C381.006805,237.749985 380.910461,267.575287 381.083069,297.399017 
	C381.106750,301.488159 379.784271,304.119354 376.760162,306.710327 
	C360.310577,320.803864 341.475342,330.433716 320.965057,336.956116 
	C290.792328,346.551208 259.925140,348.637482 228.623718,344.847992 
	C197.889923,341.127258 169.289200,331.595947 144.175125,312.904816 
	C143.331635,312.277039 142.087906,312.187073 141.030746,311.846436 
	C141.030746,311.846405 141.023911,311.950836 141.275421,311.565063 
	C141.032150,311.079193 140.537354,310.979126 140.042572,310.879028 
	C140.042572,310.879028 140.044815,310.977661 140.359100,310.738342 
	C140.133209,310.081940 139.593048,309.664917 139.052887,309.247864 
	z"/>
	<path fill="#51FDBA" opacity="1.000000" stroke="none" 
	d="
	M430.899475,342.053772 
	C425.770294,342.053772 420.641083,342.053772 415.258423,342.053772 
	C415.258423,305.593903 415.258423,269.542938 415.258423,233.433228 
	C421.914825,232.949707 428.453491,232.484528 434.990540,231.997971 
	C451.765137,230.749451 467.121033,226.053604 480.029663,214.571106 
	C490.297577,205.437500 498.338623,194.630798 504.090057,182.354645 
	C513.491577,162.287628 521.922485,141.767883 531.184387,121.633011 
	C541.527100,99.148560 554.427917,78.235855 573.579407,62.117687 
	C590.040771,48.263622 609.273376,39.712292 630.699951,37.082619 
	C646.497070,35.143856 662.420471,34.234188 679.018677,32.802944 
	C679.018677,39.196350 679.018677,44.129978 678.993347,49.987640 
	C678.968018,81.159966 678.968018,111.408257 678.968018,141.945374 
	C657.671326,141.934326 644.829834,153.907745 635.796692,170.839432 
	C630.647888,180.490143 626.359741,190.623825 622.073059,200.705414 
	C614.280151,219.032990 607.961914,238.090988 598.908752,255.758026 
	C579.557922,293.520996 549.713928,319.730225 508.644775,332.380035 
	C486.297272,339.263397 463.386688,341.438629 440.143463,341.330597 
	C437.063324,341.316284 433.980865,341.800476 430.899475,342.053772 
	z"/>
	<path fill="#F4385B" opacity="1.000000" stroke="none" 
	d="
	M430.941467,342.516235 
	C433.980865,341.800476 437.063324,341.316284 440.143463,341.330597 
	C463.386688,341.438629 486.297272,339.263397 508.644775,332.380035 
	C549.713928,319.730225 579.557922,293.520996 598.908752,255.758026 
	C607.961914,238.090988 614.280151,219.032990 622.073059,200.705414 
	C626.359741,190.623825 630.647888,180.490143 635.796692,170.839432 
	C644.829834,153.907745 657.671326,141.934326 678.968018,141.945374 
	C678.968018,111.408257 678.968018,81.159966 679.059937,50.450237 
	C684.273376,49.988804 689.394836,49.988804 694.753113,49.988804 
	C694.753113,86.036560 694.753113,121.621185 694.753113,157.221130 
	C689.083984,158.736145 683.240906,159.920227 677.663086,161.865158 
	C665.233276,166.199310 657.362244,175.950897 652.206482,187.153687 
	C643.107666,206.924103 635.376160,227.321899 626.991760,247.423508 
	C618.466187,267.863434 608.134216,287.147766 593.544250,304.131012 
	C575.305725,325.361328 552.913025,340.096497 526.340515,348.027283 
	C513.474976,351.867126 500.029083,354.396240 486.665924,355.779785 
	C468.446808,357.666168 450.055725,357.891541 430.983490,358.867676 
	C430.983490,352.826233 430.983490,347.902435 430.941467,342.516235 
	z"/>
	<path fill="#F4385B" opacity="1.000000" stroke="none" 
	d="
	M141.068222,312.192017 
	C142.087906,312.187073 143.331635,312.277039 144.175125,312.904816 
	C169.289200,331.595947 197.889923,341.127258 228.623718,344.847992 
	C259.925140,348.637482 290.792328,346.551208 320.965057,336.956116 
	C341.475342,330.433716 360.310577,320.803864 376.760162,306.710327 
	C379.784271,304.119354 381.106750,301.488159 381.083069,297.399017 
	C380.910461,267.575287 381.006805,237.749985 381.091064,207.461487 
	C386.283264,206.997803 391.402588,206.997803 397.000183,206.997803 
	C397.000183,209.233017 397.000183,211.016861 397.000183,212.800720 
	C397.000183,245.266708 396.627594,277.740021 397.265930,310.193451 
	C397.422668,318.162384 394.279968,322.489410 388.637695,326.842438 
	C368.675934,342.243011 346.100891,351.944092 321.744415,357.503632 
	C311.748749,359.785217 301.438690,360.866638 291.211670,361.901367 
	C283.004761,362.731720 274.685730,363.220001 266.454132,362.897919 
	C240.863815,361.896545 215.890274,357.794098 192.084259,347.647766 
	C172.654587,339.366669 155.560760,327.926422 141.068222,312.192017 
	z"/>
	<path fill="#F03D5E" opacity="1.000000" stroke="none" 
	d="
	M281.026489,190.425339 
	C275.781067,191.187836 270.519257,191.489166 264.906738,191.810593 
	C264.680695,189.965714 264.392975,188.710175 264.392334,187.454514 
	C264.369202,141.355652 264.369873,95.256767 264.388947,49.157894 
	C264.389404,48.011898 264.633392,46.866001 264.938110,45.338715 
	C270.231995,44.957367 275.351593,44.957367 281.010132,44.957367 
	C281.010132,93.590523 281.010132,141.777359 281.026489,190.425339 
	z"/>
	<path fill="#F4385B" opacity="1.000000" stroke="none" 
	d="
	M139.048508,309.555237 
	C139.593048,309.664917 140.133209,310.081940 140.408356,310.735779 
	C139.776932,310.602600 139.410538,310.232635 139.048508,309.555237 
	z"/>
	<path fill="#F4385B" opacity="1.000000" stroke="none" 
	d="
	M140.078705,311.174255 
	C140.537354,310.979126 141.032150,311.079193 141.327713,311.567017 
	C140.790619,311.792969 140.452744,311.631226 140.078705,311.174255 
	z"/>
</svg>