<svg version="1.1" id="Layer_1" xmlns="http://www.w3.org/2000/svg" xmlns:xlink="http://www.w3.org/1999/xlink" x="0px" y="0px"
	 width="100%" viewBox="0 0 800 800" enable-background="new 0 0 800 800" xml:space="preserve">
	<path fill="#F5375B" opacity="1.000000" stroke="none" 
	d="
	M456.000000,34.999454 
	C504.333130,34.999401 552.166870,35.142128 599.999146,34.937164 
	C622.842102,34.839283 644.347839,40.164993 665.217590,49.007244 
	C688.229797,58.757202 707.805969,73.375816 724.203735,91.927284 
	C743.787964,114.083824 757.592346,139.574554 762.904968,168.940765 
	C765.118286,181.175354 766.802307,193.705475 766.828369,206.105225 
	C767.105713,337.770752 767.035278,469.437134 766.964172,601.103210 
	C766.953247,621.289612 762.679749,640.694763 755.190308,659.436646 
	C745.468323,683.765442 731.195923,705.046631 711.791138,722.581543 
	C689.328125,742.880066 663.332092,756.614929 633.537598,763.125000 
	C619.246826,766.247498 604.914978,767.066162 590.373535,767.055725 
	C459.374207,766.961914 328.374573,767.103149 197.375458,766.893555 
	C176.909760,766.860840 157.257996,761.675415 138.445404,753.697449 
	C115.888138,744.131348 96.282860,730.250549 79.711655,712.193420 
	C61.174496,691.994080 48.180866,668.767395 40.846519,642.228333 
	C36.365837,626.015076 34.897552,609.674622 34.916428,592.938171 
	C35.065689,460.605591 34.946903,328.272736 35.061398,195.940063 
	C35.076843,178.085648 39.769299,161.071487 45.884548,144.382706 
	C52.729298,125.703087 62.904049,108.942223 75.787117,94.014137 
	C88.010368,79.850609 102.192772,67.677155 118.461723,58.176056 
	C132.611099,49.912796 147.555496,43.410900 163.574646,39.934849 
	C173.920197,37.689934 184.511536,35.257095 195.002655,35.211769 
	C281.833801,34.836632 368.667236,34.999439 456.000000,34.999454 
	M93.537460,118.047943 
	C73.109962,144.438248 63.301563,174.411240 63.301319,207.690659 
	C63.300388,336.500397 63.224144,465.310242 63.442184,594.119629 
	C63.460384,604.872681 64.400375,615.858765 66.722610,626.335205 
	C81.671692,693.776367 138.543518,738.660095 208.772308,738.710449 
	C336.915405,738.802246 465.058716,738.781799 593.201721,738.641357 
	C602.323730,738.631348 611.584900,738.029114 620.543213,736.396179 
	C690.112122,723.715820 738.410706,666.528870 738.597046,595.643799 
	C738.937805,466.001770 738.824829,336.358032 738.622314,206.715454 
	C738.553650,162.756256 721.731812,125.969833 688.375366,97.246498 
	C661.237244,73.877769 629.252625,63.302849 593.579590,63.318153 
	C513.427612,63.352543 433.275635,63.328156 353.123657,63.328278 
	C304.632538,63.328354 256.140778,63.175053 207.650497,63.374683 
	C161.346848,63.565300 123.339508,81.533264 93.537460,118.047943 
	z"/>
	<path fill="#15134D" opacity="1.000000" stroke="none" 
	d="
	M93.758331,117.768738 
	C123.339508,81.533264 161.346848,63.565300 207.650497,63.374683 
	C256.140778,63.175053 304.632538,63.328354 353.123657,63.328278 
	C433.275635,63.328156 513.427612,63.352543 593.579590,63.318153 
	C629.252625,63.302849 661.237244,73.877769 688.375366,97.246498 
	C721.731812,125.969833 738.553650,162.756256 738.622314,206.715454 
	C738.824829,336.358032 738.937805,466.001770 738.597046,595.643799 
	C738.410706,666.528870 690.112122,723.715820 620.543213,736.396179 
	C611.584900,738.029114 602.323730,738.631348 593.201721,738.641357 
	C465.058716,738.781799 336.915405,738.802246 208.772308,738.710449 
	C138.543518,738.660095 81.671692,693.776367 66.722610,626.335205 
	C64.400375,615.858765 63.460384,604.872681 63.442184,594.119629 
	C63.224144,465.310242 63.300388,336.500397 63.301319,207.690659 
	C63.301563,174.411240 73.109962,144.438248 93.758331,117.768738 
	M152.948929,518.061035 
	C152.948929,518.061035 152.939636,517.968445 152.407974,518.547791 
	C153.399567,519.660095 154.320694,520.845947 155.393265,521.873718 
	C172.040802,537.825745 191.580200,548.949890 213.418106,556.007446 
	C246.982529,566.854614 281.339874,569.131409 316.049500,563.635376 
	C347.469116,558.660400 376.345673,547.353882 400.863129,526.334290 
	C403.765167,523.846252 404.966705,521.285828 404.948853,517.406982 
	C404.795471,484.096039 404.860748,450.784088 404.860748,417.472412 
	C404.860748,415.560425 404.860779,413.648438 404.860779,411.291748 
	C399.067108,411.291748 394.097260,411.291748 388.977081,410.330505 
	C388.977081,405.553314 388.977081,400.776154 388.977081,395.505676 
	C386.389465,395.505676 384.427063,395.505676 382.464691,395.505676 
	C357.180298,395.505646 331.895874,395.525848 306.611542,395.491028 
	C300.466309,395.482574 294.321320,395.293121 288.175934,394.354736 
	C288.175934,346.112305 288.175934,297.869873 288.175934,249.038330 
	C282.482849,249.315887 277.535400,249.557083 272.384613,248.909012 
	C272.384613,243.827316 272.384613,238.745621 272.384613,233.507645 
	C270.336792,233.416534 269.189240,233.286499 268.047699,233.326538 
	C249.856628,233.964294 231.841461,235.975159 214.317276,241.088150 
	C168.462585,254.467041 132.987625,280.798065 111.816704,324.449799 
	C96.734543,355.547333 93.438736,388.455444 98.028015,422.388367 
	C103.242271,460.942322 121.582161,492.142426 151.372177,517.734985 
	C151.928665,517.840942 152.485138,517.946899 152.948929,518.061035 
	M438.969391,546.270874 
	C438.969391,551.051025 438.969391,555.831177 438.969391,561.016357 
	C462.656982,560.970215 485.765472,561.990417 508.722778,557.966431 
	C543.011841,551.956116 573.118347,537.942261 597.133911,512.212036 
	C616.692383,491.257111 628.972473,466.151703 639.004822,439.589661 
	C645.572998,422.199585 652.755615,404.938293 661.141907,388.367737 
	C669.268616,372.310120 682.517090,362.166840 701.554077,361.728271 
	C701.812805,361.722321 702.063538,361.372772 702.346069,361.162750 
	C702.346069,325.783203 702.346069,290.399445 702.346069,254.504440 
	C697.000061,254.504440 692.034424,254.504440 686.897095,253.520157 
	C686.897095,248.740631 686.897095,243.961090 686.897095,238.944458 
	C677.929871,238.944458 669.627136,238.734909 661.337708,238.978973 
	C612.889221,240.405457 575.348877,261.044983 551.674133,303.769775 
	C541.476746,322.172455 533.822021,341.989532 525.113220,361.209869 
	C517.548584,377.905243 509.774384,394.451233 498.253815,408.931030 
	C486.867340,423.242310 472.280243,432.240326 454.235321,435.037537 
	C444.083984,436.611115 433.772949,437.154572 423.321899,438.182922 
	C423.321899,473.602112 423.321899,509.159485 423.321899,545.384949 
	C428.722290,545.384949 433.846100,545.384949 438.969391,546.270874 
	z"/>
	<path fill="#51FDBA" opacity="1.000000" stroke="none" 
	d="
	M151.182205,517.007080 
	C121.582161,492.142426 103.242271,460.942322 98.028015,422.388367 
	C93.438736,388.455444 96.734543,355.547333 111.816704,324.449799 
	C132.987625,280.798065 168.462585,254.467041 214.317276,241.088150 
	C231.841461,235.975159 249.856628,233.964294 268.047699,233.326538 
	C269.189240,233.286499 270.336792,233.416534 272.384613,233.507645 
	C272.384613,238.745621 272.384613,243.827316 272.365967,249.822906 
	C272.347290,298.792389 272.347290,346.847992 272.347290,395.186859 
	C277.970215,395.186859 283.073212,395.186859 288.176239,395.186859 
	C294.321320,395.293121 300.466309,395.482574 306.611542,395.491028 
	C331.895874,395.525848 357.180298,395.505646 382.464691,395.505676 
	C384.427063,395.505676 386.389465,395.505676 388.977081,395.505676 
	C388.977081,400.776154 388.977081,405.553314 388.983215,411.255676 
	C388.972473,442.337524 389.019897,472.494720 388.810364,502.650085 
	C388.794495,504.936127 387.558350,507.933655 385.852234,509.358521 
	C379.733826,514.468140 373.468964,519.524170 366.718628,523.732971 
	C344.627167,537.507019 320.330566,545.382996 294.614075,548.549988 
	C257.158478,553.162720 220.396088,550.182800 185.337677,535.362488 
	C174.096207,530.610352 163.714630,523.824036 152.939636,517.968445 
	C152.939636,517.968445 152.948929,518.061035 152.929169,517.756714 
	C152.333664,517.303894 151.757935,517.155518 151.182205,517.007080 
	z"/>
	<path fill="#51FCBA" opacity="1.000000" stroke="none" 
	d="
	M438.969910,545.384949 
	C433.846100,545.384949 428.722290,545.384949 423.321899,545.384949 
	C423.321899,509.159485 423.321899,473.602112 423.321899,438.182922 
	C433.772949,437.154572 444.083984,436.611115 454.235321,435.037537 
	C472.280243,432.240326 486.867340,423.242310 498.253815,408.931030 
	C509.774384,394.451233 517.548584,377.905243 525.113220,361.209869 
	C533.822021,341.989532 541.476746,322.172455 551.674133,303.769775 
	C575.348877,261.044983 612.889221,240.405457 661.337708,238.978973 
	C669.627136,238.734909 677.929871,238.944458 686.897095,238.944458 
	C686.897095,243.961090 686.897095,248.740631 686.901123,254.439789 
	C686.905090,285.454163 686.905090,315.548859 686.905090,345.894592 
	C673.695557,346.024963 662.226624,349.961761 654.564697,359.988220 
	C647.467529,369.275604 641.069641,379.438507 636.291870,390.081451 
	C628.066772,408.403595 622.010376,427.695953 613.859680,446.055481 
	C587.309509,505.859894 541.216064,538.747009 475.881653,544.094727 
	C463.624634,545.097961 451.276184,544.983582 438.969910,545.384949 
	z"/>
	<path fill="#F2385B" opacity="1.000000" stroke="none" 
	d="
	M438.969666,545.827881 
	C451.276184,544.983582 463.624634,545.097961 475.881653,544.094727 
	C541.216064,538.747009 587.309509,505.859894 613.859680,446.055481 
	C622.010376,427.695953 628.066772,408.403595 636.291870,390.081451 
	C641.069641,379.438507 647.467529,369.275604 654.564697,359.988220 
	C662.226624,349.961761 673.695557,346.024963 686.905090,345.894592 
	C686.905090,315.548859 686.905090,285.454163 686.986938,254.931946 
	C692.034424,254.504440 697.000061,254.504440 702.346069,254.504440 
	C702.346069,290.399445 702.346069,325.783203 702.346069,361.162750 
	C702.063538,361.372772 701.812805,361.722321 701.554077,361.728271 
	C682.517090,362.166840 669.268616,372.310120 661.141907,388.367737 
	C652.755615,404.938293 645.572998,422.199585 639.004822,439.589661 
	C628.972473,466.151703 616.692383,491.257111 597.133911,512.212036 
	C573.118347,537.942261 543.011841,551.956116 508.722778,557.966431 
	C485.765472,561.990417 462.656982,560.970215 438.969391,561.016357 
	C438.969391,555.831177 438.969391,551.051025 438.969666,545.827881 
	z"/>
	<path fill="#F1385B" opacity="1.000000" stroke="none" 
	d="
	M152.673798,518.258118 
	C163.714630,523.824036 174.096207,530.610352 185.337677,535.362488 
	C220.396088,550.182800 257.158478,553.162720 294.614075,548.549988 
	C320.330566,545.382996 344.627167,537.507019 366.718628,523.732971 
	C373.468964,519.524170 379.733826,514.468140 385.852234,509.358521 
	C387.558350,507.933655 388.794495,504.936127 388.810364,502.650085 
	C389.019897,472.494720 388.972473,442.337524 389.058350,411.736267 
	C394.097260,411.291748 399.067108,411.291748 404.860779,411.291748 
	C404.860779,413.648438 404.860748,415.560425 404.860748,417.472412 
	C404.860748,450.784088 404.795471,484.096039 404.948853,517.406982 
	C404.966705,521.285828 403.765167,523.846252 400.863129,526.334290 
	C376.345673,547.353882 347.469116,558.660400 316.049500,563.635376 
	C281.339874,569.131409 246.982529,566.854614 213.418106,556.007446 
	C191.580200,548.949890 172.040802,537.825745 155.393265,521.873718 
	C154.320694,520.845947 153.399567,519.660095 152.673798,518.258118 
	z"/>
	<path fill="#F03C5D" opacity="1.000000" stroke="none" 
	d="
	M288.176086,394.770813 
	C283.073212,395.186859 277.970215,395.186859 272.347290,395.186859 
	C272.347290,346.847992 272.347290,298.792389 272.467651,250.267532 
	C277.535400,249.557083 282.482849,249.315887 288.175934,249.038330 
	C288.175934,297.869873 288.175934,346.112305 288.176086,394.770813 
	z"/>
	<path fill="#F1385B" opacity="1.000000" stroke="none" 
	d="
	M151.277191,517.371033 
	C151.757935,517.155518 152.333664,517.303894 152.975510,517.752563 
	C152.485138,517.946899 151.928665,517.840942 151.277191,517.371033 
	z"/>
</svg>